<?xml version="1.0" encoding="UTF-8"?>
<svg xmlns="http://www.w3.org/2000/svg" xmlns:xlink="http://www.w3.org/1999/xlink" width="512" height="512" viewBox="0 0 44 58" version="1.1"><!-- Generator: Sketch 51.3 (57544) - http://www.bohemiancoding.com/sketch --><title>010 - Carrying Box</title><desc>Created with Sketch.</desc><defs/><g id="Page-1" stroke="none" stroke-width="1" fill="none" fill-rule="evenodd"><g id="010---Carrying-Box" transform="translate(-1.000000, 0.000000)" fill-rule="nonzero"><rect id="Rectangle-path" fill="#7F5B53" x="27" y="8" width="18" height="18" rx="1"/><rect id="Rectangle-path" fill="#AF8066" x="29" y="8" width="14" height="16" rx="1"/><polygon id="Shape" fill="#7F5B53" points="39 16 36 14 33 16 33 8 39 8"/><path d="M15.54,40.2 L13.91,46.73 C13.8063273,47.1324941 13.6226782,47.509995 13.37,47.84 L6.37,56.84 C5.35379606,58.1489149 3.46891486,58.3862039 2.16,57.37 C0.851085143,56.3537961 0.61379606,54.4689149 1.63,53.16 L8.24,44.66 L11.03,33.51 L11.01,33.75 C10.9423122,34.5757257 11.2171331,35.3929564 11.77,36.01 L15.54,40.2 Z" id="Shape" fill="#285680"/><path d="M26,44 L26,55 C26.0010634,55.795975 25.6853344,56.5596548 25.1224946,57.1224946 C24.5596548,57.6853344 23.795975,58.0010634 23,58 C22.658424,58.0021187 22.3193977,57.941094 22,57.82 C20.7981447,57.4053958 19.9938525,56.2713438 20,55 L20,45.15 L15.54,40.2 L11.77,36.01 C11.2171331,35.3929564 10.9423122,34.5757257 11.01,33.75 L11.03,33.51 L11.24,31.04 L15.12,31.69 L17,32 L17.18,32.01 L17.1,32.96 L17.16,33.03 L25.23,41.99 C25.7274965,42.5410529 26.0019946,43.2575998 26,44 Z" id="Shape" fill="#4482C3"/><path d="M40,29 C40.0010634,29.795975 39.6853344,30.5596548 39.1224946,31.1224946 C38.5596548,31.6853344 37.795975,32.0010634 37,32 L23,32 C21.863685,32.0013134 20.8249862,31.3579403 20.32,30.34 L17.59,27.09 L17.18,32.01 L17,32 L15.11,31.69 L11.24,31.04 L11.77,24.65 L12.11,20.59 L12.39,17.14 L12.72,13.19 L16.71,13.36 L18.72,13.45 L18.28,18.72 L18.28,18.73 C18.4391862,18.9078406 18.573726,19.1062867 18.68,19.32 L24.85,26 L37,26 C37.5980972,26.0002245 38.1827124,26.177697 38.68,26.51 C39.5082351,27.0674636 40.00346,28.0016378 40,29 Z" id="Shape" fill="#F0C419"/><path d="M18.72,13.45 L18.37,17.64 C17.6024156,17.8777023 16.8035467,17.9990494 16,18 C14.745633,18.002473 13.5085221,17.7077596 12.39,17.14 L12.72,13.19 L16.71,13.36 L18.72,13.45 Z" id="Shape" fill="#F29C1F"/><circle id="Oval" fill="#FDD7AD" cx="16" cy="8" r="8"/></g></g></svg>
